<?xml version="1.0" standalone="no"?>
<!DOCTYPE svg PUBLIC "-//W3C//DTD SVG 20010904//EN"
 "http://www.w3.org/TR/2001/REC-SVG-20010904/DTD/svg10.dtd">
<svg version="1.0" xmlns="http://www.w3.org/2000/svg"
 width="500.000000pt" height="500.000000pt" viewBox="0 0 500.000000 500.000000"
 preserveAspectRatio="xMidYMid meet">
<metadata>
Created by potrace 1.11, written by Peter Selinger 2001-2013
</metadata>
<g transform="translate(0.000000,500.000000) scale(0.100000,-0.100000)"
fill="#000000" stroke="none">
<path d="M2000 4894 c-19 -3 -135 -16 -256 -29 -125 -13 -266 -35 -323 -50
-166 -42 -320 -103 -350 -139 -7 -8 -16 -54 -19 -103 l-7 -87 -40 -11 c-22 -5
-46 -14 -53 -18 -14 -10 -17 -117 -2 -117 6 0 10 24 10 53 l0 54 98 26 c53 15
138 34 187 43 50 8 123 22 163 30 40 8 126 18 190 24 153 14 271 26 467 51
243 31 457 24 785 -24 507 -74 674 -104 958 -174 l112 -27 0 -32 0 -33 -58 24
c-133 54 -350 87 -714 110 -134 8 -308 19 -388 24 -240 15 -842 -15 -1195 -59
-175 -22 -373 -60 -475 -91 -36 -10 -92 -20 -125 -22 -52 -2 -61 -5 -72 -27
-28 -56 -7 -162 39 -194 12 -9 41 -16 64 -16 l41 0 7 -165 c4 -90 13 -206 21
-257 8 -51 22 -154 31 -228 8 -74 19 -151 25 -170 5 -19 9 -56 9 -81 0 -26 4
-70 10 -98 5 -29 14 -156 20 -284 14 -326 17 -362 56 -633 18 -133 41 -317 49
-410 9 -92 20 -197 26 -233 5 -36 14 -113 19 -171 6 -58 15 -139 20 -180 5
-41 14 -118 20 -170 18 -151 39 -324 57 -465 l16 -130 -26 -39 c-35 -50 -34
-62 7 -101 238 -224 1460 -291 2101 -114 181 49 265 105 265 174 0 44 -74 92
-221 146 -51 19 -62 20 -70 8 -13 -21 -12 -7 17 236 14 119 24 221 22 227 -5
14 -68 -428 -68 -474 0 -37 -1 -37 -32 -34 -30 4 -182 -39 -230 -65 -25 -13
-262 -48 -335 -49 -32 0 -240 2 -463 4 -389 4 -516 12 -780 48 -47 6 -103 11
-126 12 l-40 1 -32 255 c-18 140 -37 298 -42 350 -5 52 -14 136 -20 185 -6 50
-16 137 -22 195 -5 58 -13 137 -17 175 -5 39 -16 144 -25 235 -10 91 -31 253
-46 360 -16 107 -28 195 -27 196 1 1 15 4 30 6 28 3 30 -1 64 -87 38 -97 37
-81 17 -301 -5 -55 -2 -93 15 -165 11 -52 23 -116 27 -143 4 -34 9 -45 16 -38
8 8 15 6 26 -4 13 -13 18 -12 43 14 15 16 45 53 65 83 20 30 34 44 30 33 -4
-14 -1 -28 9 -37 8 -9 15 -25 15 -37 0 -28 24 -21 28 8 5 33 22 26 22 -8 0
-34 7 -38 26 -12 13 16 13 16 14 0 0 -38 20 -16 20 23 0 32 -3 40 -17 38 -35
-3 -118 3 -105 8 6 2 12 17 12 33 0 16 6 30 13 33 9 3 8 13 -6 37 -10 18 -16
35 -13 37 2 3 12 -10 21 -27 l17 -32 24 23 c30 28 30 40 -1 77 -34 41 -32 47
4 11 42 -42 57 -37 79 27 9 30 8 33 -31 63 -47 36 -67 39 -74 11 -8 -31 -54
-26 -87 9 -27 28 -28 32 -21 92 5 46 10 58 17 46 5 -9 45 -44 88 -77 44 -34
80 -65 80 -69 0 -10 31 -24 37 -17 3 2 8 21 13 41 9 40 -6 62 -63 92 -16 8
-26 17 -23 20 3 3 23 -5 43 -19 56 -37 83 -44 84 -21 3 33 -3 88 -11 102 -8
14 -73 41 -102 41 -11 0 -18 8 -18 19 0 19 2 19 65 -2 59 -19 67 -20 81 -5 14
14 14 19 0 52 -10 25 -21 36 -36 36 -12 0 -41 12 -65 26 -25 14 -49 23 -54 19
-10 -6 -28 42 -19 50 2 2 29 -8 59 -24 29 -16 71 -31 91 -35 34 -6 38 -5 44
19 3 14 4 32 1 40 -4 8 -2 17 3 20 23 14 7 25 -38 25 -26 0 -53 5 -60 12 -7 7
-12 9 -12 5 0 -4 -17 4 -37 18 -43 29 -84 32 -108 9 -9 -9 -19 -13 -23 -9 -4
4 -1 10 6 12 6 3 12 13 12 24 0 25 43 25 101 0 24 -10 72 -21 107 -23 59 -4
62 -3 62 19 0 42 -131 417 -158 453 -47 63 -252 259 -313 299 -71 47 -156 70
-200 54 -28 -11 -29 -10 -29 17 0 16 -11 104 -24 197 -34 231 -53 488 -38 506
9 10 9 16 0 25 -9 9 -5 12 16 12 31 0 106 12 261 40 263 49 534 78 845 91 124
5 252 9 285 9 93 0 567 -39 690 -55 61 -9 160 -20 220 -25 130 -12 155 -15
260 -40 44 -10 102 -21 129 -25 l49 -8 -7 -126 c-4 -69 -9 -150 -12 -178 -4
-33 -2 -53 4 -53 6 0 13 49 17 118 9 161 11 172 41 172 25 0 84 26 84 37 0 9
-82 -7 -97 -19 -10 -8 -13 -7 -13 5 0 12 15 17 58 22 31 4 63 8 70 10 17 6 26
31 17 53 -4 9 -7 42 -6 72 1 33 -5 67 -14 84 -8 15 -15 43 -15 62 0 40 -5 43
-100 71 -47 13 -65 22 -47 22 l27 1 0 78 c0 63 -4 82 -17 94 -21 18 -107 62
-143 73 -14 4 -65 25 -115 47 -105 47 -232 81 -365 98 -52 6 -142 19 -200 27
-77 11 -218 16 -525 18 -231 2 -436 1 -455 -1z m832 -24 c320 -29 519 -62 632
-105 123 -46 242 -96 286 -119 l45 -23 1 -79 c1 -43 0 -67 -3 -52 -5 30 -14
32 -159 42 -39 2 -129 14 -200 25 -110 17 -351 51 -474 66 -208 26 -287 37
-300 40 -8 2 -94 7 -190 10 -190 7 -488 -9 -660 -36 -36 -6 -101 -14 -145 -19
-44 -5 -111 -15 -150 -23 -130 -27 -220 -41 -334 -52 -35 -4 -74 -11 -87 -16
-23 -8 -24 -7 -24 44 0 28 3 62 6 75 17 63 345 169 591 192 65 6 156 15 203
22 197 25 719 30 962 8z m-314 -407 c-26 -2 -71 -2 -100 0 -29 2 -8 3 47 3 55
0 79 -1 53 -3z m95 0 c-7 -2 -21 -2 -30 0 -10 3 -4 5 12 5 17 0 24 -2 18 -5z
m60 0 c-7 -2 -19 -2 -25 0 -7 3 -2 5 12 5 14 0 19 -2 13 -5z m60 0 c-7 -2 -21
-2 -30 0 -10 3 -4 5 12 5 17 0 24 -2 18 -5z m1024 1 c-3 -3 -12 -4 -19 -1 -8
3 -5 6 6 6 11 1 17 -2 13 -5z m-1554 -11 c-7 -2 -21 -2 -30 0 -10 3 -4 5 12 5
17 0 24 -2 18 -5z m670 0 c-7 -2 -19 -2 -25 0 -7 3 -2 5 12 5 14 0 19 -2 13
-5z m-815 -10 c-10 -2 -26 -2 -35 0 -10 3 -2 5 17 5 19 0 27 -2 18 -5z m1015
0 c-13 -2 -35 -2 -50 0 -16 2 -5 4 22 4 28 0 40 -2 28 -4z m-1160 -10 c-7 -2
-19 -2 -25 0 -7 3 -2 5 12 5 14 0 19 -2 13 -5z m1055 -3 c131 -10 284 -33 497
-75 39 -8 124 -24 190 -35 66 -12 159 -30 206 -42 83 -19 87 -21 93 -51 9 -46
-5 -53 -71 -34 -32 9 -83 23 -113 32 -35 10 -137 19 -285 25 -126 6 -286 14
-355 20 -466 36 -599 41 -935 32 -246 -6 -1013 -87 -1196 -125 -82 -17 -99
-10 -98 41 1 72 6 76 95 74 53 -1 74 2 64 8 -9 6 -10 10 -3 10 6 0 15 -5 18
-10 4 -6 15 -8 25 -5 9 3 75 14 146 25 71 11 172 26 224 34 52 8 150 20 217
26 67 6 131 13 142 15 56 11 654 42 839 44 84 0 219 -4 300 -9z m270 3 c-10
-2 -28 -2 -40 0 -13 2 -5 4 17 4 22 1 32 -1 23 -4z m-1460 -10 c-10 -2 -26 -2
-35 0 -10 3 -2 5 17 5 19 0 27 -2 18 -5z m1575 0 c-7 -2 -19 -2 -25 0 -7 3 -2
5 12 5 14 0 19 -2 13 -5z m-1680 -10 c-7 -2 -19 -2 -25 0 -7 3 -2 5 12 5 14 0
19 -2 13 -5z m1800 0 c-7 -2 -21 -2 -30 0 -10 3 -4 5 12 5 17 0 24 -2 18 -5z
m-1896 -9 c-3 -3 -12 -4 -19 -1 -8 3 -5 6 6 6 11 1 17 -2 13 -5z m2048 -9 c50
-8 104 -19 120 -25 27 -9 26 -9 -10 -4 -129 21 -237 42 -220 43 11 0 61 -6
110 -14z m-2112 -2 c-7 -2 -19 -2 -25 0 -7 3 -2 5 12 5 14 0 19 -2 13 -5z
m-76 -9 c-3 -3 -12 -4 -19 -1 -8 3 -5 6 6 6 11 1 17 -2 13 -5z m-60 -10 c-3
-3 -12 -4 -19 -1 -8 3 -5 6 6 6 11 1 17 -2 13 -5z m-100 -20 c-3 -3 -12 -4
-19 -1 -8 3 -5 6 6 6 11 1 17 -2 13 -5z m1026 -91 c-24 -2 -62 -2 -85 0 -24 2
-5 4 42 4 47 0 66 -2 43 -4z m-320 -10 c-7 -2 -21 -2 -30 0 -10 3 -4 5 12 5
17 0 24 -2 18 -5z m915 0 c-15 -2 -42 -2 -60 0 -18 2 -6 4 27 4 33 0 48 -2 33
-4z m-1050 -10 c-10 -2 -28 -2 -40 0 -13 2 -5 4 17 4 22 1 32 -1 23 -4z m-151
-9 c-3 -3 -12 -4 -19 -1 -8 3 -5 6 6 6 11 1 17 -2 13 -5z m1506 -1 c-7 -2 -19
-2 -25 0 -7 3 -2 5 12 5 14 0 19 -2 13 -5z m-1590 -10 c-7 -2 -21 -2 -30 0
-10 3 -4 5 12 5 17 0 24 -2 18 -5z m1860 0 c-13 -2 -33 -2 -45 0 -13 2 -3 4
22 4 25 0 35 -2 23 -4z m184 -9 c-3 -3 -12 -4 -19 -1 -8 3 -5 6 6 6 11 1 17
-2 13 -5z m-2310 -20 c-3 -3 -12 -4 -19 -1 -8 3 -5 6 6 6 11 1 17 -2 13 -5z
m2483 -13 c0 -5 -9 -7 -20 -4 -11 3 -20 7 -20 9 0 2 9 4 20 4 11 0 20 -4 20
-9z m-2713 -17 c-3 -3 -12 -4 -19 -1 -8 3 -5 6 6 6 11 1 17 -2 13 -5z m2700
-36 c-3 -8 -6 -5 -6 6 -1 11 2 17 5 13 3 -3 4 -12 1 -19z m143 7 c0 -8 -2 -15
-4 -15 -2 0 -6 7 -10 15 -3 8 -1 15 4 15 6 0 10 -7 10 -15z m-3015 -5 c3 -6
-1 -7 -9 -4 -18 7 -21 14 -7 14 6 0 13 -4 16 -10z m95 -20 c0 -12 -24 -12 -60
0 -21 7 -19 8 18 9 23 1 42 -3 42 -9z m154 -940 c22 0 23 -2 13 -39 -8 -30 -7
-50 3 -81 18 -55 28 -58 45 -16 22 53 39 57 30 8 -9 -56 1 -69 33 -40 l25 23
-7 -25 c-3 -14 -9 -43 -12 -66 l-6 -41 -42 14 c-22 8 -56 13 -73 11 -31 -4
-33 -2 -33 25 0 26 3 29 25 25 34 -7 40 6 18 42 -11 20 -23 28 -34 25 -14 -5
-17 5 -21 62 -5 68 2 128 10 91 2 -11 13 -18 26 -18z m423 -408 c44 -56 74
-112 60 -112 -7 0 -32 7 -57 16 -26 9 -61 14 -83 11 -35 -5 -39 -3 -57 33 -10
20 -32 52 -47 70 l-28 33 35 -5 c19 -4 42 -9 52 -13 11 -5 18 0 23 17 4 13 14
38 22 56 l16 33 17 -51 c9 -28 30 -67 47 -88z m-327 23 c0 -8 -11 -17 -25 -21
-22 -5 -25 -12 -25 -51 0 -37 4 -46 21 -50 19 -5 20 -10 13 -92 -3 -47 -7 -97
-8 -111 -1 -25 -17 -38 -48 -39 -14 -1 -18 7 -18 33 0 28 4 35 22 38 12 2 23
8 25 14 6 17 -27 26 -43 13 -12 -10 -14 0 -14 54 0 36 -3 73 -7 82 -5 14 -2
16 13 11 18 -5 19 -2 16 37 -2 23 -10 47 -19 54 -23 18 -13 66 17 73 28 8 80
-22 80 -45z m19 -116 c8 -45 8 -94 2 -155 -10 -95 -5 -139 28 -244 31 -98 24
-96 -16 5 l-36 90 7 162 c4 106 3 164 -4 168 -5 3 -10 21 -10 38 1 48 15 15
29 -64z m66 28 c37 -61 41 -83 32 -195 -9 -123 -5 -153 23 -192 45 -63 52
-106 39 -226 -15 -135 -4 -194 47 -255 39 -47 40 -53 17 -77 -10 -9 -25 -28
-33 -41 -16 -23 -16 -23 -18 19 -2 24 -8 52 -13 62 -23 43 -29 134 -18 266
l11 133 -43 102 c-41 98 -43 107 -49 237 -3 76 -11 145 -18 157 -27 49 -7 59
23 10z m-8 -574 c-3 -10 -5 -2 -5 17 0 19 2 27 5 18 2 -10 2 -26 0 -35z m11
-318 c6 -16 13 -55 16 -85 4 -48 1 -42 -19 40 -18 68 -24 119 -23 180 l1 85 7
-95 c4 -52 12 -108 18 -125z m2067 -1455 c0 -33 0 -60 0 -60 0 0 -45 -16 -100
-35 -213 -76 -327 -89 -876 -101 -373 -9 -657 8 -804 46 -60 16 -124 29 -140
28 -72 -2 -91 24 -86 118 l1 21 83 -18 c106 -24 268 -47 382 -55 155 -11 974
-10 968 1 -3 6 0 4 8 -2 31 -30 195 -6 349 52 40 15 197 63 210 64 3 1 5 -26
5 -59z m-382 -37 c-7 -2 -19 -2 -25 0 -7 3 -2 5 12 5 14 0 19 -2 13 -5z m-86
-9 c-3 -3 -12 -4 -19 -1 -8 3 -5 6 6 6 11 1 17 -2 13 -5z"/>
<path d="M1202 2578 c7 -20 48 -23 48 -4 0 11 -9 16 -26 16 -16 0 -24 -5 -22
-12z"/>
<path d="M3121 4128 c-6 -13 -24 -41 -40 -63 -35 -48 -31 -65 7 -28 46 46 82
95 76 104 -10 16 -31 9 -43 -13z"/>
<path d="M3395 4029 c-48 -23 -94 -76 -95 -107 0 -49 26 -79 92 -101 34 -12
70 -21 79 -21 29 0 69 -22 69 -37 0 -35 -193 -82 -206 -50 -6 16 -20 17 -42 4
-9 -6 -9 -13 -1 -29 10 -19 17 -20 101 -15 101 7 155 28 178 69 14 26 13 29
-10 52 -17 16 -54 30 -114 45 -96 23 -116 33 -116 63 0 31 17 54 56 79 42 25
83 32 101 17 10 -8 13 -6 13 9 0 45 -41 54 -105 22z"/>
<path d="M2816 3985 c-8 -9 -43 -72 -77 -140 -33 -69 -65 -125 -70 -125 -5 0
-10 28 -10 63 -3 131 -14 187 -36 187 -13 0 -15 -8 -10 -47 4 -27 9 -82 13
-123 11 -128 17 -150 38 -150 12 0 87 131 115 200 8 19 25 50 37 69 l23 34 9
-24 c5 -13 13 -40 17 -59 4 -19 11 -39 15 -45 5 -5 11 -26 14 -45 6 -41 48
-82 74 -73 28 10 63 45 83 85 23 45 23 48 4 48 -8 0 -22 -15 -31 -32 -20 -38
-53 -70 -68 -65 -18 6 -44 67 -61 142 -25 111 -44 135 -79 100z"/>
<path d="M2354 3948 c-11 -13 -46 -76 -78 -140 -32 -65 -62 -118 -67 -118 -5
0 -10 28 -10 63 -3 131 -14 187 -36 187 -13 0 -15 -8 -10 -47 4 -27 9 -82 13
-123 9 -101 10 -112 19 -132 17 -41 36 -19 107 127 59 120 76 150 85 150 4 0
15 -25 24 -55 8 -30 18 -62 22 -70 3 -8 9 -28 11 -45 6 -37 49 -77 74 -68 28
10 63 45 83 85 23 45 23 48 4 48 -8 0 -22 -15 -31 -32 -20 -38 -53 -70 -68
-65 -18 6 -44 68 -62 147 -15 68 -36 110 -54 110 -3 0 -15 -10 -26 -22z"/>
<path d="M3099 3943 c-1 -4 -1 -11 0 -15 0 -4 2 -66 4 -137 4 -133 18 -181 51
-181 22 0 105 69 122 101 23 45 9 48 -31 7 -46 -45 -82 -65 -96 -51 -6 6 -11
67 -12 144 -2 119 -4 134 -19 137 -10 2 -19 0 -19 -5z"/>
<path d="M1948 3913 c-14 -16 -32 -45 -39 -65 -7 -21 -18 -38 -24 -38 -13 0
-18 -181 -6 -213 14 -36 46 -66 74 -71 50 -9 115 32 146 91 19 38 -4 34 -49
-7 -75 -69 -150 -49 -150 40 0 50 11 82 25 76 20 -7 88 37 109 73 25 44 23
101 -5 124 -30 24 -51 21 -81 -10z m75 -27 c9 -23 -26 -79 -61 -99 -18 -11
-36 -17 -39 -13 -3 3 2 26 11 51 24 61 76 97 89 61z"/>
<path d="M1400 3850 c-64 -6 -81 -15 -73 -36 4 -11 16 -14 41 -12 l36 3 12
-60 c7 -33 16 -101 19 -151 6 -88 6 -91 -15 -97 -31 -8 -19 -33 14 -29 20 2
26 -2 26 -18 0 -29 16 -25 29 9 11 25 22 31 99 50 107 26 192 68 211 103 13
23 13 30 1 55 -54 108 -248 197 -400 183z m143 -54 c72 -15 129 -44 190 -96
44 -38 48 -70 13 -98 -48 -38 -265 -99 -266 -75 -2 31 -20 215 -25 246 -7 43
-8 43 88 23z"/>
<path d="M3768 3623 c-10 -23 -19 -80 -23 -148 -4 -60 -8 -121 -10 -135 -2
-14 -4 -38 -4 -53 -1 -16 -5 -26 -11 -22 -5 3 -16 3 -22 -2 -23 -14 -46 -13
-59 3 -10 13 -9 32 6 109 10 51 15 100 12 109 -4 9 -2 16 3 16 6 0 10 5 10 11
0 6 -7 8 -16 5 -8 -3 -12 -2 -9 3 3 6 20 7 38 4 23 -3 37 0 46 11 12 14 10 16
-12 16 -13 0 -39 -3 -56 -6 -27 -6 -31 -11 -31 -38 0 -29 -10 -95 -26 -166
-19 -91 -20 -88 22 -95 22 -3 47 -8 57 -10 10 -2 17 3 17 13 0 15 2 15 10 2
14 -22 12 -148 -6 -280 -11 -87 -36 -346 -43 -464 -1 -4 -8 -6 -16 -3 -8 4
-17 2 -20 -3 -4 -6 -15 -6 -28 2 -12 6 -24 10 -27 9 -11 -4 -11 45 0 78 6 20
14 65 18 101 7 64 7 65 40 68 17 2 32 7 32 13 0 19 -2 24 -10 22 -4 -1 -25 -4
-46 -7 -22 -2 -41 -5 -43 -5 -2 -1 3 -9 10 -18 7 -10 9 -14 4 -10 -8 7 -24
-62 -51 -225 -6 -36 8 -54 19 -25 3 7 6 5 6 -5 1 -15 10 -18 51 -18 l50 0 -5
-82 c-7 -95 -23 -175 -36 -184 -13 -7 -11 -72 2 -76 7 -2 6 -45 -5 -138 -9
-74 -16 -163 -16 -198 0 -35 -6 -93 -14 -130 -8 -37 -20 -133 -27 -215 -7 -81
-17 -151 -23 -156 -6 -4 -28 -6 -48 -4 -37 5 -37 6 -36 49 0 24 4 44 7 44 4 0
7 8 8 18 1 9 5 46 10 82 7 55 11 65 31 70 34 8 32 24 -3 23 -50 -1 -55 -3 -55
-14 0 -5 5 -7 10 -4 6 3 10 2 10 -4 0 -5 -4 -11 -8 -13 -7 -3 -53 -216 -52
-245 0 -11 46 -22 108 -26 12 -1 22 -6 22 -12 0 -5 -5 -63 -10 -127 -5 -64 -6
-127 -2 -139 6 -14 13 41 21 157 12 182 21 270 48 449 8 55 19 168 24 250 18
276 20 300 30 360 11 66 21 154 44 410 8 94 22 222 30 285 8 63 17 162 19 220
5 118 30 353 47 447 14 77 9 96 -13 46z"/>
<path d="M3486 2148 c-3 -7 -7 -38 -10 -68 -3 -30 -10 -75 -16 -100 -6 -25
-13 -62 -16 -82 -7 -40 -9 -39 93 -51 32 -3 53 15 33 28 -6 4 -10 3 -10 -2 0
-4 -11 -8 -25 -8 -14 0 -25 3 -25 6 0 3 -12 4 -27 2 -16 -3 -23 -1 -17 4 15
11 32 86 40 172 6 65 9 72 35 85 20 10 30 11 38 3 8 -8 11 -6 11 6 0 22 -38
22 -69 0 -14 -9 -21 -11 -17 -5 3 6 2 13 -4 17 -6 3 -12 0 -14 -7z m-9 -190
c-3 -8 -6 -5 -6 6 -1 11 2 17 5 13 3 -3 4 -12 1 -19z"/>
<path d="M3533 1580 c1 -11 5 -20 9 -20 11 0 10 28 -1 35 -6 3 -9 -4 -8 -15z"/>
</g>
</svg>
